<?xml version="1.0" encoding="UTF-8"?>
<svg version="1.1" xmlns="http://www.w3.org/2000/svg" width="1024" height="1024">
<path d="M0 0 C337.92 0 675.84 0 1024 0 C1024 337.92 1024 675.84 1024 1024 C686.08 1024 348.16 1024 0 1024 C0 686.08 0 348.16 0 0 Z " fill="#7B7B7B" transform="translate(0,0)"/>
<path d="M0 0 C8.19657844 4.09828922 10.6733361 11.2834929 13.6875 19.375 C21.28690355 38.97941455 32.55164316 54.82036129 47 70 C47.59296875 70.64582031 48.1859375 71.29164063 48.796875 71.95703125 C66.96766677 91.16229879 94.11211583 105.58863621 119.68994141 111.46484375 C121.23038816 111.82170903 122.76673135 112.19677321 124.29833984 112.58984375 C148.30718678 118.72616211 175.04044995 117.90672585 199 112 C199.87430664 111.78569336 200.74861328 111.57138672 201.64941406 111.35058594 C213.57017386 108.32078128 224.25377058 103.93207713 235 98 C236.21448052 97.35348388 237.42931955 96.70764072 238.64453125 96.0625 C251.06749162 89.34458449 261.76059883 80.68592003 272 71 C273.32451172 69.77216797 273.32451172 69.77216797 274.67578125 68.51953125 C290.89309965 52.99035932 302.60597167 33.22753443 309.45605469 11.86010742 C311.29874216 6.51870196 314.08370535 2.91913077 319 0 C323.18613818 -0.97550874 326.36064648 -1.00930347 330.09375 1.2890625 C335.74458035 5.99036807 335.74458035 5.99036807 336.25146484 9.97851562 C336.50678792 17.31647131 334.56987091 22.84685327 331.625 29.5 C331.17165283 30.54808838 330.71830566 31.59617676 330.2512207 32.67602539 C320.79912782 54.12594869 308.24474788 72.13836296 292 89 C291.3503125 89.70125 290.700625 90.4025 290.03125 91.125 C261.32502544 121.29086309 214.12547214 142.14451414 172.39994812 143.3351593 C169.46179978 143.37290533 166.52606903 143.36962907 163.58789062 143.33618164 C161.36812175 143.31242639 159.14955326 143.31567921 156.9296875 143.32226562 C111.92878445 143.23593981 67.72823956 125.91671339 35 95 C33.6912398 93.89140313 32.37883641 92.78709026 31.0625 91.6875 C12.06594477 74.9705314 -1.64650719 52.97253881 -11.25244141 29.77441406 C-11.91211084 28.20861477 -12.61499037 26.6611714 -13.32421875 25.1171875 C-15.84461083 19.47504664 -17.25724265 14.17966727 -16 8 C-12.47754338 1.49286639 -7.23772208 -1.09870544 0 0 Z " fill="#D6D7D6" transform="translate(352,567)"/>
<path d="M0 0 C11.61782354 6.75184134 18.36619574 18.42718677 21.84375 31.21875 C24.32406367 40.76506085 25.91717172 49.68026137 25.875 59.5625 C25.87886719 60.45324219 25.88273437 61.34398437 25.88671875 62.26171875 C25.85994401 80.70951583 21.81856137 100.89230158 9.6875 115.40625 C4.61966812 120.39234266 -1.13080538 124.42487826 -8.3125 124.6875 C-16.47907515 124.57022542 -21.67949365 121.2206796 -27.3125 115.5 C-36.11318628 104.88637234 -40.32364296 92.78107899 -42.25 79.3125 C-42.50475098 77.91439087 -42.50475098 77.91439087 -42.76464844 76.48803711 C-46.32847839 53.17076538 -43.11791821 29.20146054 -29.421875 9.7109375 C-21.9569511 0.73285335 -11.56389786 -5.52571613 0 0 Z " fill="#D7D7D6" transform="translate(410.25,363.6875)"/>
<path d="M0 0 C12.9277041 6.76449633 19.55746178 19.46917228 23.7890625 32.91796875 C26.31482291 41.42242786 26.69256884 49.5335869 26.71679688 58.34350586 C26.72639409 60.44361678 26.75741475 62.54270072 26.7890625 64.64257812 C26.88733989 76.96714304 25.51483625 89.11664782 20.2265625 100.41796875 C19.92500244 101.08223877 19.62344238 101.74650879 19.31274414 102.4309082 C14.99432717 111.59732764 9.12586567 118.9518406 0.1640625 123.85546875 C-5.70335358 125.74497562 -10.85882226 126.06963724 -16.5859375 123.54296875 C-30.47512732 115.61812287 -35.97669632 100.37749423 -40.10546875 85.76171875 C-42.03708221 77.87353998 -42.07249471 70.04633664 -42.0234375 61.98046875 C-42.02167511 61.20805847 -42.01991272 60.43564819 -42.01809692 59.63983154 C-41.91783035 39.93400471 -38.57940227 20.58166958 -24.390625 5.69921875 C-17.29760683 -0.59249611 -9.23967878 -3.50421254 0 0 Z " fill="#D7D7D6" transform="translate(630.5234375,362.95703125)"/>
<path d="M0 0 C0.66 0 1.32 0 2 0 C2.51046875 1.17755859 2.51046875 1.17755859 3.03125 2.37890625 C8.05320028 13.26425062 13.78827324 18.82155554 25 23 C25 23.66 25 24.32 25 25 C24.21496094 25.3403125 23.42992187 25.680625 22.62109375 26.03125 C11.73574938 31.05320028 6.17844446 36.78827324 2 48 C1.34 48 0.68 48 0 48 C-0.3403125 47.21496094 -0.680625 46.42992187 -1.03125 45.62109375 C-6.05320028 34.73574938 -11.78827324 29.17844446 -23 25 C-23 24.34 -23 23.68 -23 23 C-22.21496094 22.6596875 -21.42992187 22.319375 -20.62109375 21.96875 C-9.73574938 16.94679972 -4.17844446 11.21172676 0 0 Z " fill="#BBBBBB" transform="translate(967,944)"/>
</svg>
